<mxfile host="app.diagrams.net" modified="2023-11-14T11:21:49.183Z" agent="Mozilla/5.0 (Windows NT 10.0; Win64; x64) AppleWebKit/537.36 (KHTML, like Gecko) Chrome/119.0.0.0 Safari/537.36" etag="90sedbiGurvYYig31-5w" version="22.1.0" type="device">
  <diagram name="Страница — 1" id="DtdS_Q2pG6pEkEfrlNOt">
    <mxGraphModel dx="796" dy="1580" grid="1" gridSize="10" guides="1" tooltips="1" connect="1" arrows="1" fold="1" page="1" pageScale="1" pageWidth="827" pageHeight="1169" math="0" shadow="0">
      <root>
        <mxCell id="0" />
        <mxCell id="1" parent="0" />
        <mxCell id="wYFcUYn46FQ1dUPHtm7m-70" value="" style="rounded=0;whiteSpace=wrap;html=1;" vertex="1" parent="1">
          <mxGeometry y="-70" width="1150" height="1350" as="geometry" />
        </mxCell>
        <mxCell id="wYFcUYn46FQ1dUPHtm7m-10" value="&lt;p style=&quot;margin:0px;margin-top:6px;text-align:center;&quot;&gt;&lt;b&gt;ReportAdapter&lt;/b&gt;&lt;/p&gt;&lt;hr&gt;&lt;p style=&quot;margin:0px;margin-left:8px;&quot;&gt;+ formPOST: string formData&lt;br&gt;+ formGET(Json data)&lt;/p&gt;" style="align=left;overflow=fill;html=1;dropTarget=0;whiteSpace=wrap;" vertex="1" parent="1">
          <mxGeometry x="310" y="30" width="180" height="90" as="geometry" />
        </mxCell>
        <mxCell id="wYFcUYn46FQ1dUPHtm7m-11" value="" style="shape=component;jettyWidth=8;jettyHeight=4;" vertex="1" parent="wYFcUYn46FQ1dUPHtm7m-10">
          <mxGeometry x="1" width="20" height="20" relative="1" as="geometry">
            <mxPoint x="-24" y="4" as="offset" />
          </mxGeometry>
        </mxCell>
        <mxCell id="wYFcUYn46FQ1dUPHtm7m-15" value="Adapter" style="shape=umlFrame;whiteSpace=wrap;html=1;pointerEvents=0;width=130;height=40;" vertex="1" parent="1">
          <mxGeometry x="60" y="-10" width="1010" height="200" as="geometry" />
        </mxCell>
        <mxCell id="wYFcUYn46FQ1dUPHtm7m-16" value="Business - logic" style="shape=umlFrame;whiteSpace=wrap;html=1;pointerEvents=0;width=130;height=40;" vertex="1" parent="1">
          <mxGeometry x="60" y="230" width="1010" height="360" as="geometry" />
        </mxCell>
        <mxCell id="wYFcUYn46FQ1dUPHtm7m-17" value="Data" style="shape=umlFrame;whiteSpace=wrap;html=1;pointerEvents=0;width=130;height=40;" vertex="1" parent="1">
          <mxGeometry x="60" y="630" width="1050" height="600" as="geometry" />
        </mxCell>
        <mxCell id="wYFcUYn46FQ1dUPHtm7m-18" value="&lt;p style=&quot;margin:0px;margin-top:6px;text-align:center;&quot;&gt;&lt;b&gt;ReportServer&lt;/b&gt;&lt;/p&gt;&lt;hr&gt;&lt;p style=&quot;margin:0px;margin-left:8px;&quot;&gt;- iAdapter: iAdapter&lt;br&gt;&lt;/p&gt;&lt;p style=&quot;margin:0px;margin-left:8px;&quot;&gt;- iRepo: iRepo&lt;/p&gt;&lt;p style=&quot;margin:0px;margin-left:8px;&quot;&gt;- report: Report&lt;/p&gt;&lt;p style=&quot;margin:0px;margin-left:8px;&quot;&gt;&lt;br&gt;&lt;/p&gt;&lt;p style=&quot;margin:0px;margin-left:8px;&quot;&gt;+ setIAdapter(iAdapter iAdapter)&lt;/p&gt;&lt;p style=&quot;margin:0px;margin-left:8px;&quot;&gt;+ getIAdapter: iAdapter&amp;nbsp;&lt;/p&gt;&lt;p style=&quot;margin:0px;margin-left:8px;&quot;&gt;+ setIRepo(iRepo iRepo)&lt;/p&gt;&lt;p style=&quot;margin:0px;margin-left:8px;&quot;&gt;+ getIRepo: iRepo&lt;/p&gt;&lt;p style=&quot;margin:0px;margin-left:8px;&quot;&gt;+ checkAdapterFormData(iAdapter)&lt;/p&gt;&lt;p style=&quot;margin:0px;margin-left:8px;&quot;&gt;+ createReport(iAdapter): Report&lt;/p&gt;&lt;p style=&quot;margin:0px;margin-left:8px;&quot;&gt;+ makeResponce(Report): Json&lt;/p&gt;" style="align=left;overflow=fill;html=1;dropTarget=0;whiteSpace=wrap;" vertex="1" parent="1">
          <mxGeometry x="340" y="370" width="200" height="200" as="geometry" />
        </mxCell>
        <mxCell id="wYFcUYn46FQ1dUPHtm7m-19" value="" style="shape=component;jettyWidth=8;jettyHeight=4;" vertex="1" parent="wYFcUYn46FQ1dUPHtm7m-18">
          <mxGeometry x="1" width="20" height="20" relative="1" as="geometry">
            <mxPoint x="-24" y="4" as="offset" />
          </mxGeometry>
        </mxCell>
        <mxCell id="wYFcUYn46FQ1dUPHtm7m-20" value="&lt;p style=&quot;margin:0px;margin-top:6px;text-align:center;&quot;&gt;&lt;b&gt;ReportRepo&lt;/b&gt;&lt;/p&gt;&lt;hr&gt;&lt;p style=&quot;margin:0px;margin-left:8px;&quot;&gt;- scheduleLst:&amp;nbsp;Schedule [1..*]&lt;br&gt;&lt;br&gt;&lt;/p&gt;&lt;p style=&quot;margin:0px;margin-left:8px;&quot;&gt;+ createScheduleLst()&amp;nbsp;&lt;/p&gt;" style="align=left;overflow=fill;html=1;dropTarget=0;whiteSpace=wrap;" vertex="1" parent="1">
          <mxGeometry x="290" y="680" width="200" height="110" as="geometry" />
        </mxCell>
        <mxCell id="wYFcUYn46FQ1dUPHtm7m-21" value="" style="shape=component;jettyWidth=8;jettyHeight=4;" vertex="1" parent="wYFcUYn46FQ1dUPHtm7m-20">
          <mxGeometry x="1" width="20" height="20" relative="1" as="geometry">
            <mxPoint x="-24" y="4" as="offset" />
          </mxGeometry>
        </mxCell>
        <mxCell id="wYFcUYn46FQ1dUPHtm7m-22" value="«interface»&lt;br&gt;&lt;b&gt;iAdapter&lt;/b&gt;" style="html=1;whiteSpace=wrap;" vertex="1" parent="1">
          <mxGeometry x="180" y="310" width="110" height="50" as="geometry" />
        </mxCell>
        <mxCell id="wYFcUYn46FQ1dUPHtm7m-23" value="«interface»&lt;br&gt;&lt;b&gt;iRepo&lt;/b&gt;" style="html=1;whiteSpace=wrap;" vertex="1" parent="1">
          <mxGeometry x="180" y="470" width="110" height="50" as="geometry" />
        </mxCell>
        <mxCell id="wYFcUYn46FQ1dUPHtm7m-24" value="" style="endArrow=block;dashed=1;endFill=0;endSize=12;html=1;rounded=0;entryX=0.5;entryY=0;entryDx=0;entryDy=0;exitX=0;exitY=0.5;exitDx=0;exitDy=0;" edge="1" parent="1" source="wYFcUYn46FQ1dUPHtm7m-10" target="wYFcUYn46FQ1dUPHtm7m-22">
          <mxGeometry width="160" relative="1" as="geometry">
            <mxPoint x="280" y="480" as="sourcePoint" />
            <mxPoint x="440" y="480" as="targetPoint" />
            <Array as="points">
              <mxPoint x="235" y="75" />
            </Array>
          </mxGeometry>
        </mxCell>
        <mxCell id="wYFcUYn46FQ1dUPHtm7m-25" value="" style="endArrow=block;dashed=1;endFill=0;endSize=12;html=1;rounded=0;entryX=0.5;entryY=1;entryDx=0;entryDy=0;exitX=-0.007;exitY=0.152;exitDx=0;exitDy=0;exitPerimeter=0;" edge="1" parent="1" source="wYFcUYn46FQ1dUPHtm7m-20" target="wYFcUYn46FQ1dUPHtm7m-23">
          <mxGeometry width="160" relative="1" as="geometry">
            <mxPoint x="280" y="480" as="sourcePoint" />
            <mxPoint x="440" y="480" as="targetPoint" />
            <Array as="points">
              <mxPoint x="235" y="697" />
            </Array>
          </mxGeometry>
        </mxCell>
        <mxCell id="wYFcUYn46FQ1dUPHtm7m-26" value="" style="endArrow=open;html=1;endSize=12;startArrow=diamondThin;startSize=14;startFill=1;edgeStyle=orthogonalEdgeStyle;align=left;verticalAlign=bottom;rounded=0;entryX=0.5;entryY=1;entryDx=0;entryDy=0;exitX=-0.011;exitY=0.197;exitDx=0;exitDy=0;exitPerimeter=0;" edge="1" parent="1" source="wYFcUYn46FQ1dUPHtm7m-18">
          <mxGeometry x="-1" y="3" relative="1" as="geometry">
            <mxPoint x="320" y="448.5" as="sourcePoint" />
            <mxPoint x="235.0000000000001" y="355.5" as="targetPoint" />
            <Array as="points">
              <mxPoint x="320" y="409" />
              <mxPoint x="235" y="410" />
            </Array>
          </mxGeometry>
        </mxCell>
        <mxCell id="wYFcUYn46FQ1dUPHtm7m-27" value="" style="endArrow=open;html=1;endSize=12;startArrow=diamondThin;startSize=14;startFill=1;edgeStyle=orthogonalEdgeStyle;align=left;verticalAlign=bottom;rounded=0;entryX=0.5;entryY=0;entryDx=0;entryDy=0;" edge="1" parent="1" target="wYFcUYn46FQ1dUPHtm7m-23">
          <mxGeometry x="-1" y="3" relative="1" as="geometry">
            <mxPoint x="341" y="436" as="sourcePoint" />
            <mxPoint x="225" y="430" as="targetPoint" />
            <Array as="points">
              <mxPoint x="235" y="436" />
            </Array>
          </mxGeometry>
        </mxCell>
        <mxCell id="wYFcUYn46FQ1dUPHtm7m-28" value="&lt;p style=&quot;margin:0px;margin-top:6px;text-align:center;&quot;&gt;&lt;b&gt;Category&lt;/b&gt;&lt;br&gt;&lt;/p&gt;&lt;hr&gt;&lt;p style=&quot;margin:0px;margin-left:8px;&quot;&gt;- id: int&lt;br&gt;-&amp;nbsp;name: String&lt;/p&gt;&lt;p style=&quot;margin:0px;margin-left:8px;&quot;&gt;&lt;br&gt;&lt;/p&gt;&lt;p style=&quot;margin:0px;margin-left:8px;&quot;&gt;+ setName(String name)&lt;/p&gt;&lt;p style=&quot;margin:0px;margin-left:8px;&quot;&gt;+ getName(): String&lt;/p&gt;" style="align=left;overflow=fill;html=1;dropTarget=0;whiteSpace=wrap;" vertex="1" parent="1">
          <mxGeometry x="100" y="830" width="180" height="120" as="geometry" />
        </mxCell>
        <mxCell id="wYFcUYn46FQ1dUPHtm7m-29" value="" style="shape=component;jettyWidth=8;jettyHeight=4;" vertex="1" parent="wYFcUYn46FQ1dUPHtm7m-28">
          <mxGeometry x="1" width="20" height="20" relative="1" as="geometry">
            <mxPoint x="-24" y="4" as="offset" />
          </mxGeometry>
        </mxCell>
        <mxCell id="wYFcUYn46FQ1dUPHtm7m-31" value="&lt;p style=&quot;margin:0px;margin-top:6px;text-align:center;&quot;&gt;&lt;b&gt;SubCategory&lt;/b&gt;&lt;br&gt;&lt;/p&gt;&lt;hr&gt;&lt;p style=&quot;margin:0px;margin-left:8px;&quot;&gt;- id: int&lt;br&gt;-&amp;nbsp;name: String&lt;/p&gt;&lt;p style=&quot;margin:0px;margin-left:8px;&quot;&gt;- idCategory: int&lt;/p&gt;&lt;p style=&quot;margin:0px;margin-left:8px;&quot;&gt;&lt;br&gt;&lt;/p&gt;&lt;p style=&quot;margin:0px;margin-left:8px;&quot;&gt;+ setName(String name)&lt;/p&gt;&lt;p style=&quot;margin:0px;margin-left:8px;&quot;&gt;+ getName(): String&lt;/p&gt;&lt;p style=&quot;border-color: var(--border-color); margin: 0px 0px 0px 8px;&quot;&gt;+ setIdCategory(int idCategory)&lt;/p&gt;&lt;p style=&quot;border-color: var(--border-color); margin: 0px 0px 0px 8px;&quot;&gt;+ getIdCategory(): int&lt;/p&gt;" style="align=left;overflow=fill;html=1;dropTarget=0;whiteSpace=wrap;" vertex="1" parent="1">
          <mxGeometry x="340" y="858" width="200" height="160" as="geometry" />
        </mxCell>
        <mxCell id="wYFcUYn46FQ1dUPHtm7m-32" value="" style="shape=component;jettyWidth=8;jettyHeight=4;" vertex="1" parent="wYFcUYn46FQ1dUPHtm7m-31">
          <mxGeometry x="1" width="20" height="20" relative="1" as="geometry">
            <mxPoint x="-24" y="4" as="offset" />
          </mxGeometry>
        </mxCell>
        <mxCell id="wYFcUYn46FQ1dUPHtm7m-33" value="" style="line;strokeWidth=1;fillColor=none;align=left;verticalAlign=middle;spacingTop=-1;spacingLeft=3;spacingRight=3;rotatable=0;labelPosition=right;points=[];portConstraint=eastwest;strokeColor=inherit;" vertex="1" parent="1">
          <mxGeometry x="340" y="942" width="200" height="8" as="geometry" />
        </mxCell>
        <mxCell id="wYFcUYn46FQ1dUPHtm7m-30" value="" style="line;strokeWidth=1;fillColor=none;align=left;verticalAlign=middle;spacingTop=-1;spacingLeft=3;spacingRight=3;rotatable=0;labelPosition=right;points=[];portConstraint=eastwest;strokeColor=inherit;" vertex="1" parent="1">
          <mxGeometry x="100" y="896" width="180" height="8" as="geometry" />
        </mxCell>
        <mxCell id="wYFcUYn46FQ1dUPHtm7m-36" value="&lt;p style=&quot;margin:0px;margin-top:6px;text-align:center;&quot;&gt;&lt;b&gt;Product&lt;/b&gt;&lt;br&gt;&lt;/p&gt;&lt;hr&gt;&lt;p style=&quot;margin:0px;margin-left:8px;&quot;&gt;- id: int&lt;br&gt;-&amp;nbsp;name: String&lt;/p&gt;&lt;p style=&quot;margin:0px;margin-left:8px;&quot;&gt;- price: Float&lt;/p&gt;&lt;p style=&quot;margin:0px;margin-left:8px;&quot;&gt;- idSubCategory: int&lt;/p&gt;&lt;p style=&quot;margin:0px;margin-left:8px;&quot;&gt;- idUnits: int&lt;/p&gt;&lt;p style=&quot;margin:0px;margin-left:8px;&quot;&gt;- idProvider: int&lt;/p&gt;&lt;p style=&quot;margin:0px;margin-left:8px;&quot;&gt;&lt;br&gt;&lt;/p&gt;&lt;p style=&quot;margin:0px;margin-left:8px;&quot;&gt;+ setName(String name)&lt;/p&gt;&lt;p style=&quot;margin:0px;margin-left:8px;&quot;&gt;+ getName(): String&lt;/p&gt;&lt;p style=&quot;margin:0px;margin-left:8px;&quot;&gt;+ setPrice(Float price)&lt;/p&gt;&lt;p style=&quot;margin:0px;margin-left:8px;&quot;&gt;+ getPrice(): Float&lt;/p&gt;&lt;p style=&quot;border-color: var(--border-color); margin: 0px 0px 0px 8px;&quot;&gt;+ setIdSubCategory(int idSubCat)&lt;/p&gt;&lt;p style=&quot;border-color: var(--border-color); margin: 0px 0px 0px 8px;&quot;&gt;+ getIdSubCategory(): int&lt;/p&gt;&lt;p style=&quot;border-color: var(--border-color); margin: 0px 0px 0px 8px;&quot;&gt;+ setIdUnits(int idUnits)&lt;/p&gt;&lt;p style=&quot;border-color: var(--border-color); margin: 0px 0px 0px 8px;&quot;&gt;+ getIdUnits&lt;span style=&quot;background-color: initial;&quot;&gt;(): int&lt;/span&gt;&lt;br&gt;&lt;/p&gt;&lt;p style=&quot;border-color: var(--border-color); margin: 0px 0px 0px 8px;&quot;&gt;+ setIdProvider(int idProvider)&lt;/p&gt;&lt;p style=&quot;border-color: var(--border-color); margin: 0px 0px 0px 8px;&quot;&gt;+ getIdProvider(): int&lt;/p&gt;" style="align=left;overflow=fill;html=1;dropTarget=0;whiteSpace=wrap;" vertex="1" parent="1">
          <mxGeometry x="610" y="910" width="200" height="288" as="geometry" />
        </mxCell>
        <mxCell id="wYFcUYn46FQ1dUPHtm7m-37" value="" style="shape=component;jettyWidth=8;jettyHeight=4;" vertex="1" parent="wYFcUYn46FQ1dUPHtm7m-36">
          <mxGeometry x="1" width="20" height="20" relative="1" as="geometry">
            <mxPoint x="-24" y="4" as="offset" />
          </mxGeometry>
        </mxCell>
        <mxCell id="wYFcUYn46FQ1dUPHtm7m-38" value="" style="line;strokeWidth=1;fillColor=none;align=left;verticalAlign=middle;spacingTop=-1;spacingLeft=3;spacingRight=3;rotatable=0;labelPosition=right;points=[];portConstraint=eastwest;strokeColor=inherit;" vertex="1" parent="1">
          <mxGeometry x="610" y="1036" width="200" height="8" as="geometry" />
        </mxCell>
        <mxCell id="wYFcUYn46FQ1dUPHtm7m-41" value="&lt;p style=&quot;margin:0px;margin-top:6px;text-align:center;&quot;&gt;&lt;b&gt;Units&lt;/b&gt;&lt;/p&gt;&lt;hr&gt;&lt;p style=&quot;margin:0px;margin-left:8px;&quot;&gt;- id: int&lt;br&gt;-&amp;nbsp;name: String&lt;/p&gt;&lt;p style=&quot;margin:0px;margin-left:8px;&quot;&gt;&lt;br&gt;&lt;/p&gt;&lt;p style=&quot;margin:0px;margin-left:8px;&quot;&gt;+ setName(String name)&lt;/p&gt;&lt;p style=&quot;margin:0px;margin-left:8px;&quot;&gt;+ getName(): String&lt;/p&gt;" style="align=left;overflow=fill;html=1;dropTarget=0;whiteSpace=wrap;" vertex="1" parent="1">
          <mxGeometry x="860" y="682" width="200" height="118" as="geometry" />
        </mxCell>
        <mxCell id="wYFcUYn46FQ1dUPHtm7m-42" value="" style="shape=component;jettyWidth=8;jettyHeight=4;" vertex="1" parent="wYFcUYn46FQ1dUPHtm7m-41">
          <mxGeometry x="1" width="20" height="20" relative="1" as="geometry">
            <mxPoint x="-24" y="4" as="offset" />
          </mxGeometry>
        </mxCell>
        <mxCell id="wYFcUYn46FQ1dUPHtm7m-43" value="" style="line;strokeWidth=1;fillColor=none;align=left;verticalAlign=middle;spacingTop=-1;spacingLeft=3;spacingRight=3;rotatable=0;labelPosition=right;points=[];portConstraint=eastwest;strokeColor=inherit;" vertex="1" parent="1">
          <mxGeometry x="860" y="750" width="200" height="8" as="geometry" />
        </mxCell>
        <mxCell id="wYFcUYn46FQ1dUPHtm7m-44" value="&lt;p style=&quot;margin:0px;margin-top:6px;text-align:center;&quot;&gt;&lt;b&gt;Provider&lt;/b&gt;&lt;br&gt;&lt;/p&gt;&lt;hr&gt;&lt;p style=&quot;margin:0px;margin-left:8px;&quot;&gt;- id: int&lt;br&gt;-&amp;nbsp;name: String&lt;/p&gt;&lt;p style=&quot;margin:0px;margin-left:8px;&quot;&gt;- detailsCompany: String&lt;/p&gt;&lt;p style=&quot;margin:0px;margin-left:8px;&quot;&gt;-&amp;nbsp;contacts: String&lt;/p&gt;&lt;p style=&quot;margin:0px;margin-left:8px;&quot;&gt;&lt;br&gt;&lt;/p&gt;&lt;p style=&quot;margin:0px;margin-left:8px;&quot;&gt;+ setName(String name)&lt;/p&gt;&lt;p style=&quot;margin:0px;margin-left:8px;&quot;&gt;+ getName(): String&lt;/p&gt;&lt;p style=&quot;border-color: var(--border-color); margin: 0px 0px 0px 8px;&quot;&gt;+ setDetailsCompany(String msg)&lt;/p&gt;&lt;p style=&quot;border-color: var(--border-color); margin: 0px 0px 0px 8px;&quot;&gt;+ getDetailsCompany(): String&lt;/p&gt;&lt;p style=&quot;border-color: var(--border-color); margin: 0px 0px 0px 8px;&quot;&gt;+ setContacts(String msg)&lt;/p&gt;&lt;p style=&quot;border-color: var(--border-color); margin: 0px 0px 0px 8px;&quot;&gt;+ getContacts(): String&lt;/p&gt;" style="align=left;overflow=fill;html=1;dropTarget=0;whiteSpace=wrap;" vertex="1" parent="1">
          <mxGeometry x="860" y="840" width="200" height="200" as="geometry" />
        </mxCell>
        <mxCell id="wYFcUYn46FQ1dUPHtm7m-45" value="" style="shape=component;jettyWidth=8;jettyHeight=4;" vertex="1" parent="wYFcUYn46FQ1dUPHtm7m-44">
          <mxGeometry x="1" width="20" height="20" relative="1" as="geometry">
            <mxPoint x="-24" y="4" as="offset" />
          </mxGeometry>
        </mxCell>
        <mxCell id="wYFcUYn46FQ1dUPHtm7m-48" value="" style="line;strokeWidth=1;fillColor=none;align=left;verticalAlign=middle;spacingTop=-1;spacingLeft=3;spacingRight=3;rotatable=0;labelPosition=right;points=[];portConstraint=eastwest;strokeColor=inherit;" vertex="1" parent="1">
          <mxGeometry x="860" y="934" width="200" height="8" as="geometry" />
        </mxCell>
        <mxCell id="wYFcUYn46FQ1dUPHtm7m-49" value="&lt;p style=&quot;margin:0px;margin-top:6px;text-align:center;&quot;&gt;&lt;b&gt;Schedule&lt;/b&gt;&lt;br&gt;&lt;/p&gt;&lt;hr&gt;&lt;p style=&quot;margin:0px;margin-left:8px;&quot;&gt;- id: int&lt;br&gt;-&amp;nbsp;idProduct: int&lt;/p&gt;&lt;p style=&quot;margin:0px;margin-left:8px;&quot;&gt;- count: int&lt;/p&gt;&lt;p style=&quot;margin:0px;margin-left:8px;&quot;&gt;-&amp;nbsp;date: Date&lt;/p&gt;&lt;p style=&quot;margin:0px;margin-left:8px;&quot;&gt;&lt;br&gt;&lt;/p&gt;&lt;p style=&quot;margin:0px;margin-left:8px;&quot;&gt;+ setIdPRoduct(int idProduct)&lt;/p&gt;&lt;p style=&quot;margin:0px;margin-left:8px;&quot;&gt;+ getIdPRoduct(): int&lt;/p&gt;&lt;p style=&quot;border-color: var(--border-color); margin: 0px 0px 0px 8px;&quot;&gt;+ setCount(int count)&lt;/p&gt;&lt;p style=&quot;border-color: var(--border-color); margin: 0px 0px 0px 8px;&quot;&gt;+ getCount(): int&lt;/p&gt;&lt;p style=&quot;border-color: var(--border-color); margin: 0px 0px 0px 8px;&quot;&gt;+ setDate(Date date)&lt;/p&gt;&lt;p style=&quot;border-color: var(--border-color); margin: 0px 0px 0px 8px;&quot;&gt;+ getDate(): Date&lt;/p&gt;" style="align=left;overflow=fill;html=1;dropTarget=0;whiteSpace=wrap;" vertex="1" parent="1">
          <mxGeometry x="610" y="682" width="200" height="200" as="geometry" />
        </mxCell>
        <mxCell id="wYFcUYn46FQ1dUPHtm7m-50" value="" style="shape=component;jettyWidth=8;jettyHeight=4;" vertex="1" parent="wYFcUYn46FQ1dUPHtm7m-49">
          <mxGeometry x="1" width="20" height="20" relative="1" as="geometry">
            <mxPoint x="-24" y="4" as="offset" />
          </mxGeometry>
        </mxCell>
        <mxCell id="wYFcUYn46FQ1dUPHtm7m-51" value="" style="line;strokeWidth=1;fillColor=none;align=left;verticalAlign=middle;spacingTop=-1;spacingLeft=3;spacingRight=3;rotatable=0;labelPosition=right;points=[];portConstraint=eastwest;strokeColor=inherit;" vertex="1" parent="1">
          <mxGeometry x="610" y="778" width="200" height="8" as="geometry" />
        </mxCell>
        <mxCell id="wYFcUYn46FQ1dUPHtm7m-52" value="Extends" style="endArrow=block;endSize=16;endFill=0;html=1;rounded=0;exitX=-0.002;exitY=0.443;exitDx=0;exitDy=0;exitPerimeter=0;entryX=0.5;entryY=1;entryDx=0;entryDy=0;" edge="1" parent="1" source="wYFcUYn46FQ1dUPHtm7m-31" target="wYFcUYn46FQ1dUPHtm7m-28">
          <mxGeometry width="160" relative="1" as="geometry">
            <mxPoint x="370" y="910" as="sourcePoint" />
            <mxPoint x="530" y="910" as="targetPoint" />
            <Array as="points">
              <mxPoint x="310" y="930" />
              <mxPoint x="310" y="1000" />
              <mxPoint x="190" y="1000" />
            </Array>
          </mxGeometry>
        </mxCell>
        <mxCell id="wYFcUYn46FQ1dUPHtm7m-53" value="" style="endArrow=open;html=1;endSize=12;startArrow=diamondThin;startSize=14;startFill=0;edgeStyle=orthogonalEdgeStyle;align=left;verticalAlign=bottom;rounded=0;entryX=0.5;entryY=0;entryDx=0;entryDy=0;exitX=0.013;exitY=0.293;exitDx=0;exitDy=0;exitPerimeter=0;" edge="1" parent="1" source="wYFcUYn46FQ1dUPHtm7m-36" target="wYFcUYn46FQ1dUPHtm7m-31">
          <mxGeometry x="-1" y="3" relative="1" as="geometry">
            <mxPoint x="460" y="810" as="sourcePoint" />
            <mxPoint x="620" y="810" as="targetPoint" />
            <Array as="points">
              <mxPoint x="570" y="994" />
              <mxPoint x="570" y="810" />
              <mxPoint x="440" y="810" />
            </Array>
          </mxGeometry>
        </mxCell>
        <mxCell id="wYFcUYn46FQ1dUPHtm7m-54" value="" style="endArrow=open;html=1;endSize=12;startArrow=diamondThin;startSize=14;startFill=0;edgeStyle=orthogonalEdgeStyle;align=left;verticalAlign=bottom;rounded=0;exitX=1.001;exitY=0.34;exitDx=0;exitDy=0;exitPerimeter=0;entryX=-0.024;entryY=0.126;entryDx=0;entryDy=0;entryPerimeter=0;" edge="1" parent="1" source="wYFcUYn46FQ1dUPHtm7m-36" target="wYFcUYn46FQ1dUPHtm7m-41">
          <mxGeometry x="-1" y="3" relative="1" as="geometry">
            <mxPoint x="810" y="1140" as="sourcePoint" />
            <mxPoint x="970" y="1140" as="targetPoint" />
            <Array as="points">
              <mxPoint x="830" y="1008" />
              <mxPoint x="830" y="697" />
            </Array>
          </mxGeometry>
        </mxCell>
        <mxCell id="wYFcUYn46FQ1dUPHtm7m-56" value="" style="endArrow=open;html=1;endSize=12;startArrow=diamondThin;startSize=14;startFill=0;edgeStyle=orthogonalEdgeStyle;align=left;verticalAlign=bottom;rounded=0;exitX=1.001;exitY=0.4;exitDx=0;exitDy=0;exitPerimeter=0;entryX=0.5;entryY=1;entryDx=0;entryDy=0;" edge="1" parent="1" source="wYFcUYn46FQ1dUPHtm7m-36" target="wYFcUYn46FQ1dUPHtm7m-44">
          <mxGeometry x="-1" y="3" relative="1" as="geometry">
            <mxPoint x="840" y="1140" as="sourcePoint" />
            <mxPoint x="1000" y="1140" as="targetPoint" />
            <Array as="points">
              <mxPoint x="835" y="1025" />
              <mxPoint x="835" y="1100" />
              <mxPoint x="960" y="1100" />
            </Array>
          </mxGeometry>
        </mxCell>
        <mxCell id="wYFcUYn46FQ1dUPHtm7m-57" value="" style="endArrow=open;html=1;endSize=12;startArrow=diamondThin;startSize=14;startFill=0;edgeStyle=orthogonalEdgeStyle;align=left;verticalAlign=bottom;rounded=0;entryX=0.002;entryY=0.038;entryDx=0;entryDy=0;entryPerimeter=0;exitX=0;exitY=0.25;exitDx=0;exitDy=0;" edge="1" parent="1" source="wYFcUYn46FQ1dUPHtm7m-49" target="wYFcUYn46FQ1dUPHtm7m-36">
          <mxGeometry x="-1" y="3" relative="1" as="geometry">
            <mxPoint x="340" y="1100" as="sourcePoint" />
            <mxPoint x="500" y="1100" as="targetPoint" />
            <Array as="points">
              <mxPoint x="590" y="732" />
              <mxPoint x="590" y="921" />
            </Array>
          </mxGeometry>
        </mxCell>
        <mxCell id="wYFcUYn46FQ1dUPHtm7m-59" value="" style="line;strokeWidth=1;fillColor=none;align=left;verticalAlign=middle;spacingTop=-1;spacingLeft=3;spacingRight=3;rotatable=0;labelPosition=right;points=[];portConstraint=eastwest;strokeColor=inherit;" vertex="1" parent="1">
          <mxGeometry x="290" y="731" width="200" height="8" as="geometry" />
        </mxCell>
        <mxCell id="wYFcUYn46FQ1dUPHtm7m-60" value="" style="endArrow=open;html=1;endSize=12;startArrow=diamondThin;startSize=14;startFill=0;edgeStyle=orthogonalEdgeStyle;align=left;verticalAlign=bottom;rounded=0;exitX=1.009;exitY=0.358;exitDx=0;exitDy=0;exitPerimeter=0;entryX=-0.019;entryY=0.066;entryDx=0;entryDy=0;entryPerimeter=0;" edge="1" parent="1" source="wYFcUYn46FQ1dUPHtm7m-20" target="wYFcUYn46FQ1dUPHtm7m-49">
          <mxGeometry x="-1" y="3" relative="1" as="geometry">
            <mxPoint x="450" y="840" as="sourcePoint" />
            <mxPoint x="610" y="840" as="targetPoint" />
          </mxGeometry>
        </mxCell>
        <mxCell id="wYFcUYn46FQ1dUPHtm7m-61" value="&lt;p style=&quot;margin:0px;margin-top:6px;text-align:center;&quot;&gt;&lt;b&gt;Report&lt;/b&gt;&lt;br&gt;&lt;/p&gt;&lt;hr&gt;&lt;p style=&quot;margin:0px;margin-left:8px;&quot;&gt;- id: int&lt;br&gt;-&amp;nbsp;dateBegin: Date&lt;/p&gt;&lt;p style=&quot;margin:0px;margin-left:8px;&quot;&gt;- dateFinish: Date&lt;/p&gt;&lt;p style=&quot;margin:0px;margin-left:8px;&quot;&gt;- data: MapSchedule&lt;/p&gt;&lt;p style=&quot;margin:0px;margin-left:8px;&quot;&gt;&lt;br&gt;&lt;/p&gt;&lt;p style=&quot;margin:0px;margin-left:8px;&quot;&gt;+ setDateBegin(Date date)&lt;/p&gt;&lt;p style=&quot;margin:0px;margin-left:8px;&quot;&gt;+ getDateBegin(): Date&lt;/p&gt;&lt;p style=&quot;margin:0px;margin-left:8px;&quot;&gt;+&amp;nbsp;setDateFinish(Date date)&lt;/p&gt;&lt;p style=&quot;border-color: var(--border-color); margin: 0px 0px 0px 8px;&quot;&gt;+ getDateFinish(): Date&lt;/p&gt;&lt;p style=&quot;border-color: var(--border-color); margin: 0px 0px 0px 8px;&quot;&gt;+ createData(iAdapter formData)&lt;/p&gt;" style="align=left;overflow=fill;html=1;dropTarget=0;whiteSpace=wrap;" vertex="1" parent="1">
          <mxGeometry x="610" y="280" width="200" height="190" as="geometry" />
        </mxCell>
        <mxCell id="wYFcUYn46FQ1dUPHtm7m-62" value="" style="shape=component;jettyWidth=8;jettyHeight=4;" vertex="1" parent="wYFcUYn46FQ1dUPHtm7m-61">
          <mxGeometry x="1" width="20" height="20" relative="1" as="geometry">
            <mxPoint x="-24" y="4" as="offset" />
          </mxGeometry>
        </mxCell>
        <mxCell id="wYFcUYn46FQ1dUPHtm7m-63" value="" style="line;strokeWidth=1;fillColor=none;align=left;verticalAlign=middle;spacingTop=-1;spacingLeft=3;spacingRight=3;rotatable=0;labelPosition=right;points=[];portConstraint=eastwest;strokeColor=inherit;" vertex="1" parent="1">
          <mxGeometry x="610" y="376" width="200" height="8" as="geometry" />
        </mxCell>
        <mxCell id="wYFcUYn46FQ1dUPHtm7m-64" value="" style="line;strokeWidth=1;fillColor=none;align=left;verticalAlign=middle;spacingTop=-1;spacingLeft=3;spacingRight=3;rotatable=0;labelPosition=right;points=[];portConstraint=eastwest;strokeColor=inherit;" vertex="1" parent="1">
          <mxGeometry x="340" y="448.5" width="200" height="8" as="geometry" />
        </mxCell>
        <mxCell id="wYFcUYn46FQ1dUPHtm7m-65" value="" style="endArrow=open;html=1;endSize=12;startArrow=diamondThin;startSize=14;startFill=0;edgeStyle=orthogonalEdgeStyle;align=left;verticalAlign=bottom;rounded=0;exitX=1.002;exitY=0.427;exitDx=0;exitDy=0;exitPerimeter=0;entryX=-0.008;entryY=0.083;entryDx=0;entryDy=0;entryPerimeter=0;" edge="1" parent="1" source="wYFcUYn46FQ1dUPHtm7m-18" target="wYFcUYn46FQ1dUPHtm7m-61">
          <mxGeometry x="-1" y="3" relative="1" as="geometry">
            <mxPoint x="420" y="290" as="sourcePoint" />
            <mxPoint x="580" y="290" as="targetPoint" />
          </mxGeometry>
        </mxCell>
      </root>
    </mxGraphModel>
  </diagram>
</mxfile>
